<mxfile host="app.diagrams.net" modified="2020-10-22T07:53:57.717Z" agent="5.0 (Windows)" etag="8dMpt-y0W7CG6T0o11J4" version="13.6.10" type="github">
  <diagram id="0fKyiCqdGfYzrdNGeuZN" name="Page-1">
    <mxGraphModel dx="1108" dy="461" grid="1" gridSize="10" guides="1" tooltips="1" connect="1" arrows="1" fold="1" page="1" pageScale="1" pageWidth="1600" pageHeight="900" math="0" shadow="0">
      <root>
        <mxCell id="0" />
        <mxCell id="1" parent="0" />
        <mxCell id="T7yRqZnU3iM2HwVuO0ZW-1" value="Cliente" style="shape=ext;margin=3;double=1;whiteSpace=wrap;html=1;align=center;" parent="1" vertex="1">
          <mxGeometry x="240" y="140" width="120" height="40" as="geometry" />
        </mxCell>
        <mxCell id="T7yRqZnU3iM2HwVuO0ZW-2" value="Articulo" style="shape=ext;margin=3;double=1;whiteSpace=wrap;html=1;align=center;" parent="1" vertex="1">
          <mxGeometry x="1630" y="145" width="120" height="40" as="geometry" />
        </mxCell>
        <mxCell id="T7yRqZnU3iM2HwVuO0ZW-3" value="&lt;div&gt;Pedido&lt;/div&gt;" style="shape=ext;margin=3;double=1;whiteSpace=wrap;html=1;align=center;" parent="1" vertex="1">
          <mxGeometry x="910" y="140" width="120" height="40" as="geometry" />
        </mxCell>
        <mxCell id="T7yRqZnU3iM2HwVuO0ZW-5" value="Hace" style="shape=rhombus;perimeter=rhombusPerimeter;whiteSpace=wrap;html=1;align=center;" parent="1" vertex="1">
          <mxGeometry x="540" y="130" width="120" height="60" as="geometry" />
        </mxCell>
        <mxCell id="T7yRqZnU3iM2HwVuO0ZW-8" value="numCliente" style="ellipse;whiteSpace=wrap;html=1;align=center;fontStyle=4;" parent="1" vertex="1">
          <mxGeometry x="80" y="80" width="120" height="40" as="geometry" />
        </mxCell>
        <mxCell id="T7yRqZnU3iM2HwVuO0ZW-9" value="&lt;div&gt;direccionEnvio&lt;/div&gt;" style="ellipse;whiteSpace=wrap;html=1;align=center;" parent="1" vertex="1">
          <mxGeometry x="240" y="40" width="120" height="40" as="geometry" />
        </mxCell>
        <mxCell id="T7yRqZnU3iM2HwVuO0ZW-10" value="&lt;div&gt;saldo&lt;/div&gt;" style="ellipse;whiteSpace=wrap;html=1;align=center;" parent="1" vertex="1">
          <mxGeometry x="80" y="200" width="120" height="40" as="geometry" />
        </mxCell>
        <mxCell id="T7yRqZnU3iM2HwVuO0ZW-11" value="&lt;div&gt;limCredito&lt;/div&gt;" style="ellipse;whiteSpace=wrap;html=1;align=center;" parent="1" vertex="1">
          <mxGeometry x="240" y="240" width="120" height="40" as="geometry" />
        </mxCell>
        <mxCell id="T7yRqZnU3iM2HwVuO0ZW-13" value="" style="endArrow=none;html=1;rounded=0;entryX=0;entryY=0;entryDx=0;entryDy=0;" parent="1" target="T7yRqZnU3iM2HwVuO0ZW-1" edge="1">
          <mxGeometry relative="1" as="geometry">
            <mxPoint x="200" y="100" as="sourcePoint" />
            <mxPoint x="360" y="100" as="targetPoint" />
          </mxGeometry>
        </mxCell>
        <mxCell id="T7yRqZnU3iM2HwVuO0ZW-14" value="" style="endArrow=none;html=1;rounded=0;entryX=0.5;entryY=0;entryDx=0;entryDy=0;exitX=0.5;exitY=1;exitDx=0;exitDy=0;" parent="1" source="T7yRqZnU3iM2HwVuO0ZW-9" target="T7yRqZnU3iM2HwVuO0ZW-1" edge="1">
          <mxGeometry relative="1" as="geometry">
            <mxPoint x="300" y="80" as="sourcePoint" />
            <mxPoint x="360" y="120" as="targetPoint" />
          </mxGeometry>
        </mxCell>
        <mxCell id="T7yRqZnU3iM2HwVuO0ZW-15" value="" style="endArrow=none;html=1;rounded=0;exitX=1;exitY=0.5;exitDx=0;exitDy=0;entryX=0;entryY=1;entryDx=0;entryDy=0;" parent="1" source="T7yRqZnU3iM2HwVuO0ZW-10" target="T7yRqZnU3iM2HwVuO0ZW-1" edge="1">
          <mxGeometry relative="1" as="geometry">
            <mxPoint x="100" y="180" as="sourcePoint" />
            <mxPoint x="260" y="180" as="targetPoint" />
          </mxGeometry>
        </mxCell>
        <mxCell id="T7yRqZnU3iM2HwVuO0ZW-16" value="" style="endArrow=none;html=1;rounded=0;exitX=0.5;exitY=1;exitDx=0;exitDy=0;entryX=0.5;entryY=0;entryDx=0;entryDy=0;" parent="1" source="T7yRqZnU3iM2HwVuO0ZW-1" target="T7yRqZnU3iM2HwVuO0ZW-11" edge="1">
          <mxGeometry relative="1" as="geometry">
            <mxPoint x="270" y="220" as="sourcePoint" />
            <mxPoint x="430" y="220" as="targetPoint" />
          </mxGeometry>
        </mxCell>
        <mxCell id="T7yRqZnU3iM2HwVuO0ZW-20" value="" style="endArrow=none;html=1;rounded=0;entryX=0;entryY=0.5;entryDx=0;entryDy=0;" parent="1" target="T7yRqZnU3iM2HwVuO0ZW-5" edge="1">
          <mxGeometry relative="1" as="geometry">
            <mxPoint x="360" y="160" as="sourcePoint" />
            <mxPoint x="440" y="160" as="targetPoint" />
          </mxGeometry>
        </mxCell>
        <mxCell id="T7yRqZnU3iM2HwVuO0ZW-38" value="" style="endArrow=none;html=1;rounded=0;exitX=1;exitY=0.5;exitDx=0;exitDy=0;" parent="1" source="T7yRqZnU3iM2HwVuO0ZW-5" edge="1">
          <mxGeometry relative="1" as="geometry">
            <mxPoint x="870" y="160" as="sourcePoint" />
            <mxPoint x="910" y="160" as="targetPoint" />
          </mxGeometry>
        </mxCell>
        <mxCell id="T7yRqZnU3iM2HwVuO0ZW-48" value="&lt;div&gt;Tiene&lt;/div&gt;" style="shape=rhombus;perimeter=rhombusPerimeter;whiteSpace=wrap;html=1;align=center;" parent="1" vertex="1">
          <mxGeometry x="1310" y="130" width="120" height="60" as="geometry" />
        </mxCell>
        <mxCell id="T7yRqZnU3iM2HwVuO0ZW-49" value="" style="endArrow=none;html=1;rounded=0;entryX=1;entryY=0.5;entryDx=0;entryDy=0;" parent="1" source="T7yRqZnU3iM2HwVuO0ZW-48" target="T7yRqZnU3iM2HwVuO0ZW-3" edge="1">
          <mxGeometry relative="1" as="geometry">
            <mxPoint x="820" y="250" as="sourcePoint" />
            <mxPoint x="980" y="250" as="targetPoint" />
          </mxGeometry>
        </mxCell>
        <mxCell id="T7yRqZnU3iM2HwVuO0ZW-50" value="" style="endArrow=none;html=1;rounded=0;entryX=1;entryY=0.5;entryDx=0;entryDy=0;" parent="1" target="T7yRqZnU3iM2HwVuO0ZW-48" edge="1">
          <mxGeometry relative="1" as="geometry">
            <mxPoint x="1630" y="160" as="sourcePoint" />
            <mxPoint x="1380" y="240" as="targetPoint" />
          </mxGeometry>
        </mxCell>
        <mxCell id="T7yRqZnU3iM2HwVuO0ZW-51" value="1:N" style="text;strokeColor=none;fillColor=none;spacingLeft=4;spacingRight=4;overflow=hidden;rotatable=0;points=[[0,0.5],[1,0.5]];portConstraint=eastwest;fontSize=12;" parent="1" vertex="1">
          <mxGeometry x="1350" y="100" width="40" height="30" as="geometry" />
        </mxCell>
        <mxCell id="T7yRqZnU3iM2HwVuO0ZW-52" value="&lt;div&gt;numArticulo&lt;/div&gt;" style="ellipse;whiteSpace=wrap;html=1;align=center;fontStyle=4;" parent="1" vertex="1">
          <mxGeometry x="1750" y="240" width="120" height="40" as="geometry" />
        </mxCell>
        <mxCell id="T7yRqZnU3iM2HwVuO0ZW-53" value="" style="endArrow=none;html=1;rounded=0;entryX=0;entryY=0.5;entryDx=0;entryDy=0;exitX=1;exitY=0.5;exitDx=0;exitDy=0;" parent="1" source="T7yRqZnU3iM2HwVuO0ZW-2" edge="1">
          <mxGeometry relative="1" as="geometry">
            <mxPoint x="1690" y="185" as="sourcePoint" />
            <mxPoint x="1830" y="165" as="targetPoint" />
          </mxGeometry>
        </mxCell>
        <mxCell id="T7yRqZnU3iM2HwVuO0ZW-54" value="&lt;div&gt;distribuidor&lt;/div&gt;" style="ellipse;whiteSpace=wrap;html=1;align=center;" parent="1" vertex="1">
          <mxGeometry x="1510" y="240" width="120" height="40" as="geometry" />
        </mxCell>
        <mxCell id="T7yRqZnU3iM2HwVuO0ZW-55" value="existenciaDistribuidor" style="ellipse;whiteSpace=wrap;html=1;align=center;" parent="1" vertex="1">
          <mxGeometry x="1830" y="145" width="120" height="40" as="geometry" />
        </mxCell>
        <mxCell id="T7yRqZnU3iM2HwVuO0ZW-56" value="&lt;div&gt;descripcion&lt;/div&gt;" style="ellipse;whiteSpace=wrap;html=1;align=center;" parent="1" vertex="1">
          <mxGeometry x="1630" y="40" width="120" height="40" as="geometry" />
        </mxCell>
        <mxCell id="T7yRqZnU3iM2HwVuO0ZW-58" value="" style="endArrow=none;html=1;rounded=0;entryX=0.5;entryY=1;entryDx=0;entryDy=0;exitX=0.5;exitY=0;exitDx=0;exitDy=0;" parent="1" source="T7yRqZnU3iM2HwVuO0ZW-54" target="T7yRqZnU3iM2HwVuO0ZW-2" edge="1">
          <mxGeometry relative="1" as="geometry">
            <mxPoint x="1560" y="225" as="sourcePoint" />
            <mxPoint x="1720" y="225" as="targetPoint" />
          </mxGeometry>
        </mxCell>
        <mxCell id="T7yRqZnU3iM2HwVuO0ZW-59" value="" style="endArrow=none;html=1;rounded=0;entryX=0.5;entryY=0;entryDx=0;entryDy=0;" parent="1" target="T7yRqZnU3iM2HwVuO0ZW-52" edge="1">
          <mxGeometry relative="1" as="geometry">
            <mxPoint x="1690" y="185" as="sourcePoint" />
            <mxPoint x="1850" y="185" as="targetPoint" />
          </mxGeometry>
        </mxCell>
        <mxCell id="T7yRqZnU3iM2HwVuO0ZW-61" value="" style="endArrow=none;html=1;rounded=0;entryX=0.5;entryY=1;entryDx=0;entryDy=0;exitX=0.622;exitY=0.053;exitDx=0;exitDy=0;exitPerimeter=0;" parent="1" source="T7yRqZnU3iM2HwVuO0ZW-66" target="T7yRqZnU3iM2HwVuO0ZW-3" edge="1">
          <mxGeometry relative="1" as="geometry">
            <mxPoint x="890" y="239.9999999999999" as="sourcePoint" />
            <mxPoint x="970" y="200" as="targetPoint" />
          </mxGeometry>
        </mxCell>
        <mxCell id="T7yRqZnU3iM2HwVuO0ZW-65" value="" style="endArrow=none;html=1;rounded=0;entryX=0.5;entryY=0;entryDx=0;entryDy=0;" parent="1" target="T7yRqZnU3iM2HwVuO0ZW-67" edge="1">
          <mxGeometry relative="1" as="geometry">
            <mxPoint x="970" y="180" as="sourcePoint" />
            <mxPoint x="1060" y="239.9999999999999" as="targetPoint" />
          </mxGeometry>
        </mxCell>
        <mxCell id="T7yRqZnU3iM2HwVuO0ZW-66" value="cabeceraPedido" style="ellipse;shape=doubleEllipse;margin=3;whiteSpace=wrap;html=1;align=center;" parent="1" vertex="1">
          <mxGeometry x="720" y="240" width="120" height="40" as="geometry" />
        </mxCell>
        <mxCell id="T7yRqZnU3iM2HwVuO0ZW-67" value="&lt;div&gt;cuerpoPedido&lt;/div&gt;" style="ellipse;shape=doubleEllipse;margin=3;whiteSpace=wrap;html=1;align=center;" parent="1" vertex="1">
          <mxGeometry x="1080" y="240" width="120" height="40" as="geometry" />
        </mxCell>
        <mxCell id="T7yRqZnU3iM2HwVuO0ZW-69" value="" style="endArrow=none;html=1;rounded=0;exitX=0.5;exitY=0;exitDx=0;exitDy=0;entryX=0.5;entryY=1;entryDx=0;entryDy=0;" parent="1" source="T7yRqZnU3iM2HwVuO0ZW-2" target="T7yRqZnU3iM2HwVuO0ZW-56" edge="1">
          <mxGeometry relative="1" as="geometry">
            <mxPoint x="1690" y="140" as="sourcePoint" />
            <mxPoint x="1690" y="90" as="targetPoint" />
          </mxGeometry>
        </mxCell>
        <mxCell id="T7yRqZnU3iM2HwVuO0ZW-72" value="Cliente" style="whiteSpace=wrap;html=1;align=center;" parent="1" vertex="1">
          <mxGeometry x="240" y="140" width="120" height="40" as="geometry" />
        </mxCell>
        <mxCell id="T7yRqZnU3iM2HwVuO0ZW-73" value="Articulo" style="whiteSpace=wrap;html=1;align=center;" parent="1" vertex="1">
          <mxGeometry x="1630" y="145" width="120" height="40" as="geometry" />
        </mxCell>
        <mxCell id="T7yRqZnU3iM2HwVuO0ZW-74" value="&lt;div&gt;Pedido&lt;/div&gt;" style="whiteSpace=wrap;html=1;align=center;" parent="1" vertex="1">
          <mxGeometry x="910" y="140" width="120" height="40" as="geometry" />
        </mxCell>
        <mxCell id="T7yRqZnU3iM2HwVuO0ZW-75" value="Fábrica" style="whiteSpace=wrap;html=1;align=center;" parent="1" vertex="1">
          <mxGeometry x="1630" y="480" width="120" height="40" as="geometry" />
        </mxCell>
        <mxCell id="T7yRqZnU3iM2HwVuO0ZW-76" value="&lt;div&gt;Fabrica&lt;/div&gt;" style="shape=rhombus;perimeter=rhombusPerimeter;whiteSpace=wrap;html=1;align=center;" parent="1" vertex="1">
          <mxGeometry x="1630" y="310" width="120" height="60" as="geometry" />
        </mxCell>
        <mxCell id="T7yRqZnU3iM2HwVuO0ZW-77" value="" style="endArrow=none;html=1;rounded=0;exitX=0.5;exitY=0;exitDx=0;exitDy=0;" parent="1" source="T7yRqZnU3iM2HwVuO0ZW-76" target="T7yRqZnU3iM2HwVuO0ZW-73" edge="1">
          <mxGeometry relative="1" as="geometry">
            <mxPoint x="1690" y="270" as="sourcePoint" />
            <mxPoint x="1690" y="190" as="targetPoint" />
          </mxGeometry>
        </mxCell>
        <mxCell id="T7yRqZnU3iM2HwVuO0ZW-79" value="" style="endArrow=none;html=1;rounded=0;exitX=0.5;exitY=0;exitDx=0;exitDy=0;" parent="1" source="T7yRqZnU3iM2HwVuO0ZW-75" edge="1">
          <mxGeometry relative="1" as="geometry">
            <mxPoint x="1690" y="430" as="sourcePoint" />
            <mxPoint x="1690" y="370" as="targetPoint" />
          </mxGeometry>
        </mxCell>
        <mxCell id="T7yRqZnU3iM2HwVuO0ZW-81" value="1:N" style="text;strokeColor=none;fillColor=none;spacingLeft=4;spacingRight=4;overflow=hidden;rotatable=0;points=[[0,0.5],[1,0.5]];portConstraint=eastwest;fontSize=12;" parent="1" vertex="1">
          <mxGeometry x="1750" y="325" width="40" height="30" as="geometry" />
        </mxCell>
        <mxCell id="T7yRqZnU3iM2HwVuO0ZW-85" value="numFabrica" style="ellipse;whiteSpace=wrap;html=1;align=center;fontStyle=4;" parent="1" vertex="1">
          <mxGeometry x="1430" y="480" width="120" height="40" as="geometry" />
        </mxCell>
        <mxCell id="T7yRqZnU3iM2HwVuO0ZW-87" value="&lt;div&gt;telefono&lt;/div&gt;" style="ellipse;whiteSpace=wrap;html=1;align=center;" parent="1" vertex="1">
          <mxGeometry x="1830" y="480" width="120" height="40" as="geometry" />
        </mxCell>
        <mxCell id="T7yRqZnU3iM2HwVuO0ZW-88" value="" style="endArrow=none;html=1;rounded=0;" parent="1" edge="1">
          <mxGeometry relative="1" as="geometry">
            <mxPoint x="1750" y="500" as="sourcePoint" />
            <mxPoint x="1830" y="500" as="targetPoint" />
          </mxGeometry>
        </mxCell>
        <mxCell id="T7yRqZnU3iM2HwVuO0ZW-89" value="" style="endArrow=none;html=1;rounded=0;entryX=0;entryY=0.5;entryDx=0;entryDy=0;" parent="1" target="T7yRqZnU3iM2HwVuO0ZW-75" edge="1">
          <mxGeometry relative="1" as="geometry">
            <mxPoint x="1550" y="500" as="sourcePoint" />
            <mxPoint x="1710" y="500" as="targetPoint" />
          </mxGeometry>
        </mxCell>
        <mxCell id="T7yRqZnU3iM2HwVuO0ZW-91" value="numCliente" style="ellipse;whiteSpace=wrap;html=1;align=center;" parent="1" vertex="1">
          <mxGeometry x="560" y="315" width="120" height="40" as="geometry" />
        </mxCell>
        <mxCell id="T7yRqZnU3iM2HwVuO0ZW-92" value="direccionEnvio" style="ellipse;whiteSpace=wrap;html=1;align=center;" parent="1" vertex="1">
          <mxGeometry x="560" y="480" width="120" height="40" as="geometry" />
        </mxCell>
        <mxCell id="T7yRqZnU3iM2HwVuO0ZW-93" value="fechaPedido" style="ellipse;whiteSpace=wrap;html=1;align=center;" parent="1" vertex="1">
          <mxGeometry x="560" y="400" width="120" height="40" as="geometry" />
        </mxCell>
        <mxCell id="T7yRqZnU3iM2HwVuO0ZW-94" value="" style="endArrow=none;html=1;rounded=0;entryX=0.411;entryY=0.979;entryDx=0;entryDy=0;entryPerimeter=0;exitX=1;exitY=0.5;exitDx=0;exitDy=0;" parent="1" source="T7yRqZnU3iM2HwVuO0ZW-91" target="T7yRqZnU3iM2HwVuO0ZW-66" edge="1">
          <mxGeometry relative="1" as="geometry">
            <mxPoint x="680" y="340" as="sourcePoint" />
            <mxPoint x="840" y="340" as="targetPoint" />
          </mxGeometry>
        </mxCell>
        <mxCell id="T7yRqZnU3iM2HwVuO0ZW-95" value="" style="endArrow=none;html=1;rounded=0;entryX=0.421;entryY=1.009;entryDx=0;entryDy=0;entryPerimeter=0;exitX=1;exitY=0.5;exitDx=0;exitDy=0;" parent="1" source="T7yRqZnU3iM2HwVuO0ZW-93" target="T7yRqZnU3iM2HwVuO0ZW-66" edge="1">
          <mxGeometry relative="1" as="geometry">
            <mxPoint x="680" y="420" as="sourcePoint" />
            <mxPoint x="840" y="420" as="targetPoint" />
          </mxGeometry>
        </mxCell>
        <mxCell id="T7yRqZnU3iM2HwVuO0ZW-96" value="" style="endArrow=none;html=1;rounded=0;" parent="1" target="T7yRqZnU3iM2HwVuO0ZW-66" edge="1">
          <mxGeometry relative="1" as="geometry">
            <mxPoint x="680" y="500" as="sourcePoint" />
            <mxPoint x="770" y="283" as="targetPoint" />
          </mxGeometry>
        </mxCell>
        <mxCell id="T7yRqZnU3iM2HwVuO0ZW-97" value="cantidad" style="ellipse;whiteSpace=wrap;html=1;align=center;" parent="1" vertex="1">
          <mxGeometry x="1240" y="400" width="120" height="40" as="geometry" />
        </mxCell>
        <mxCell id="T7yRqZnU3iM2HwVuO0ZW-98" value="numArticulo" style="ellipse;whiteSpace=wrap;html=1;align=center;" parent="1" vertex="1">
          <mxGeometry x="1240" y="310" width="120" height="40" as="geometry" />
        </mxCell>
        <mxCell id="T7yRqZnU3iM2HwVuO0ZW-99" value="" style="endArrow=none;html=1;rounded=0;entryX=0;entryY=0.5;entryDx=0;entryDy=0;exitX=0.5;exitY=1;exitDx=0;exitDy=0;" parent="1" source="T7yRqZnU3iM2HwVuO0ZW-67" target="T7yRqZnU3iM2HwVuO0ZW-98" edge="1">
          <mxGeometry relative="1" as="geometry">
            <mxPoint x="1130" y="280" as="sourcePoint" />
            <mxPoint x="1290" y="280" as="targetPoint" />
          </mxGeometry>
        </mxCell>
        <mxCell id="T7yRqZnU3iM2HwVuO0ZW-100" value="" style="endArrow=none;html=1;rounded=0;exitX=0.5;exitY=1;exitDx=0;exitDy=0;" parent="1" source="T7yRqZnU3iM2HwVuO0ZW-67" edge="1">
          <mxGeometry relative="1" as="geometry">
            <mxPoint x="1080" y="420" as="sourcePoint" />
            <mxPoint x="1240" y="420" as="targetPoint" />
          </mxGeometry>
        </mxCell>
      </root>
    </mxGraphModel>
  </diagram>
</mxfile>
